<?xml version="1.0" encoding="UTF-8"?>
<svg id="Layer_1" data-name="Layer 1" xmlns="http://www.w3.org/2000/svg" viewBox="0 0 730 150">
  <defs>
    <style>
      .cls-1 {
        fill: red;
      }
    </style>
  </defs>
  <g>
    <path class="cls-1" d="M59.97,79.97v.48h-12.88l.08-37.6-13.04,37.12v.48h-12.88l.08-56h12.88l-.08,36.96,12.96-36.96h12.96l-.08,36.96,12.96-36.96h6.48l-19.44,55.52Z"/>
    <path class="cls-1" d="M102.45,29.65l-4.24,23.84h9.04l-.88,4.8h-8.96l-3.04,16.96h14.4l-.88,5.2h-27.28l9.84-56h27.28l-.88,5.2h-14.4Z"/>
    <path class="cls-1" d="M147.09,75.25l-.88,5.2h-26.48l9.84-56h12.88l-8.96,50.8h13.6Z"/>
    <path class="cls-1" d="M166.68,81.73c-8.96,0-14.24-7.52-12.4-17.84l4-22.8c1.84-10.32,9.76-17.84,18.72-17.84s14.08,7.52,12.24,17.84l-.4,2.24h-12.08l1.28-7.2c.72-3.84.96-6.8-2-6.8-3.28,0-3.92,2.96-4.64,6.8l-5.84,33.36c-.4,2.24-.08,5.12,2.48,5.12,2.32,0,3.76-2.88,4.16-5.12.08-.48.48-2.64.96-5.6h12.08c-1.84,10.32-9.6,17.84-18.56,17.84Z"/>
    <path class="cls-1" d="M219.96,23.25c8.96,0,14.08,7.52,12.24,17.84l-4,22.8c-1.84,10.32-9.6,17.84-18.56,17.84s-14.24-7.52-12.4-17.84l4-22.8c1.84-10.32,9.76-17.84,18.72-17.84ZM208.52,69.49c-.4,2.24-.08,5.36,2.48,5.36,2.32,0,3.76-3.12,4.16-5.36l5.84-33.36c.72-3.84,1.04-7.04-1.92-7.04-3.28,0-4,3.2-4.72,7.04l-5.84,33.36Z"/>
    <path class="cls-1" d="M284.76,80.45h-12.88l6.72-38.08-13.28,37.84v.24h-12.08l-.48-39.04-6.88,39.04h-6.48l9.84-56h15.36l.48,37.92,13.28-37.92h16.24l-9.84,56Z"/>
    <path class="cls-1" d="M322.04,29.65l-4.24,23.84h9.04l-.88,4.8h-8.96l-3.04,16.96h14.4l-.88,5.2h-27.28l9.84-56h27.28l-.88,5.2h-14.4Z"/>
    <path class="cls-1" d="M402.76,29.65h-12l-8.96,50.8h-12.88l8.96-50.8h-12.56l.88-5.2h37.44l-.88,5.2Z"/>
    <path class="cls-1" d="M427.56,23.25c8.96,0,14.08,7.52,12.24,17.84l-4,22.8c-1.84,10.32-9.6,17.84-18.56,17.84s-14.24-7.52-12.4-17.84l4-22.8c1.84-10.32,9.76-17.84,18.72-17.84ZM416.12,69.49c-.4,2.24-.08,5.36,2.48,5.36,2.32,0,3.76-3.12,4.16-5.36l5.84-33.36c.72-3.84,1.04-7.04-1.92-7.04-3.28,0-4,3.2-4.72,7.04l-5.84,33.36Z"/>
    <path class="cls-1" d="M500.44,80.45h-12.88v-12h-8.64l-4.24,12h-6.48l19.44-55.52v-.48h12.88l-.08,56ZM487.56,62.05l.08-18.56-6.48,18.56h6.4Z"/>
    <path class="cls-1" d="M508.52,59.81l.88-4.8h19.76l-.88,4.8h-19.76Z"/>
    <path class="cls-1" d="M573,42.77c-1.28,7.2-4.56,12.56-9.84,15.68l1.76,22h-9.6l-1.52-19.12c-1.04.08-2.08.16-3.2.16l-3.36,18.96h-12.88l9.84-56h12.88c10.16,0,18.56,3.36,15.92,18.32ZM551.72,54.93c3.12-.08,8-2.64,9.12-8.8.88-4.72,1.12-6.32,1.52-8.56.96-5.28-1.68-7.36-6.32-7.36l-4.32,24.72Z"/>
    <path class="cls-1" d="M602.2,23.25c8.96,0,14.08,7.52,12.24,17.84l-4,22.8c-1.84,10.32-9.6,17.84-18.56,17.84s-14.24-7.52-12.4-17.84l4-22.8c1.84-10.32,9.76-17.84,18.72-17.84ZM590.76,69.49c-.4,2.24-.08,5.36,2.48,5.36,2.32,0,3.76-3.12,4.16-5.36l5.84-33.36c.72-3.84,1.04-7.04-1.92-7.04-3.28,0-4,3.2-4.72,7.04l-5.84,33.36Z"/>
    <path class="cls-1" d="M667,80.45h-12.88l6.72-38.08-13.28,37.84v.24h-12.08l-.48-39.04-6.88,39.04h-6.48l9.84-56h15.36l.48,37.92,13.28-37.92h16.24l-9.84,56Z"/>
    <path class="cls-1" d="M708.68,80.45h-12.88v-12h-8.64l-4.24,12h-6.48l19.44-55.52v-.48h12.88l-.08,56ZM695.8,62.05l.08-18.56-6.48,18.56h6.4Z"/>
  </g>
  <g>
    <path class="cls-1" d="M31.17,98.75l-4.8,27.3h-6.28l4.8-27.3h6.28Z"/>
    <path class="cls-1" d="M53.51,101.28h-5.85l-4.37,24.77h-6.28l4.37-24.77h-6.12l.43-2.54h18.25l-.43,2.54Z"/>
    <path class="cls-1" d="M66.93,126.05h-6.28v-5.85h-4.21l-2.07,5.85h-3.16l9.48-27.07v-.23h6.28l-.04,27.3ZM60.65,117.08l.04-9.05-3.16,9.05h3.12Z"/>
    <path class="cls-1" d="M84.79,123.51l-.43,2.54h-12.91l4.8-27.3h6.28l-4.37,24.77h6.63Z"/>
    <path class="cls-1" d="M100.94,98.75l-4.8,27.3h-6.28l4.8-27.3h6.28Z"/>
    <path class="cls-1" d="M116.85,126.05h-6.28v-5.85h-4.21l-2.07,5.85h-3.16l9.48-27.07v-.23h6.28l-.04,27.3ZM110.57,117.08l.04-9.05-3.16,9.05h3.12Z"/>
    <path class="cls-1" d="M140.83,98.75l-4.8,27.3h-7.92l-.23-19.03-3.35,19.03h-3.16l4.8-27.3h7.49l.27,21.29,3.74-21.29h3.16Z"/>
    <path class="cls-1" d="M170.4,126.05h-6.28v-5.85h-4.21l-2.07,5.85h-3.16l9.48-27.07v-.23h6.28l-.04,27.3ZM164.12,117.08l.04-9.05-3.16,9.05h3.12Z"/>
    <path class="cls-1" d="M193.76,107.68c-.62,3.51-2.22,6.12-4.8,7.64l.86,10.73h-4.68l-.74-9.32c-.51.04-1.01.08-1.56.08l-1.64,9.24h-6.28l4.8-27.3h6.28c4.95,0,9.05,1.64,7.76,8.93ZM183.38,113.61c1.52-.04,3.9-1.29,4.45-4.29.43-2.3.55-3.08.74-4.17.47-2.57-.82-3.59-3.08-3.59l-2.11,12.05Z"/>
    <path class="cls-1" d="M207.99,98.16c4.37,0,6.86,3.67,5.97,8.7l-1.95,11.12c-.9,5.03-4.68,8.7-9.05,8.7s-6.94-3.67-6.05-8.7l1.95-11.12c.9-5.03,4.76-8.7,9.13-8.7ZM202.41,120.71c-.19,1.09-.04,2.61,1.21,2.61,1.13,0,1.83-1.52,2.03-2.61l2.85-16.26c.35-1.87.51-3.43-.94-3.43-1.6,0-1.95,1.56-2.3,3.43l-2.85,16.26Z"/>
    <path class="cls-1" d="M239.58,126.05h-6.28l3.28-18.56-6.47,18.45v.12h-5.89l-.23-19.03-3.35,19.03h-3.16l4.8-27.3h7.49l.23,18.49,6.47-18.49h7.92l-4.8,27.3Z"/>
    <path class="cls-1" d="M259.9,126.05h-6.28v-5.85h-4.21l-2.07,5.85h-3.16l9.48-27.07v-.23h6.28l-.04,27.3ZM253.62,117.08l.04-9.05-3.16,9.05h3.12Z"/>
    <path class="cls-1" d="M266.29,119.61c1.25,1.83,1.83,2.96,3.2,3.59,1.95.86,3.74-.9,4.02-2.11.35-1.83-1.72-3.74-3.59-6.86-2.77-4.6-3.08-6.55-2.69-8.89.94-5.26,5.19-7.37,9.44-7.37,3.08,0,4.45,2.03,5.77,4.37l-1.99,1.64-1.44-1.75c-1.91-2.34-5.34-.47-5.66,2.38-.35,2.85,1.83,4.91,3,6.55,1.64,2.38,3.67,5.77,3.08,8.97-.7,3.98-4.02,6.67-8.11,6.67-2.92,0-5.19-2.15-7.1-5.38l2.07-1.79Z"/>
    <path class="cls-1" d="M316.53,125.82v.23h-6.28l.04-18.33-6.36,18.1v.23h-6.28l.04-27.3h6.28l-.04,18.02,6.32-18.02h6.32l-.04,18.02,6.32-18.02h3.16l-9.48,27.07Z"/>
    <path class="cls-1" d="M337.66,98.75l-4.8,27.3h-6.28l4.8-27.3h6.28Z"/>
    <path class="cls-1" d="M360.01,101.28h-5.85l-4.37,24.77h-6.28l4.37-24.77h-6.12l.43-2.54h18.25l-.43,2.54Z"/>
    <path class="cls-1" d="M382.24,98.75l-4.8,27.3h-6.28l1.95-11.19h-3.86l-1.95,11.19h-6.28l4.8-27.3h6.28l-2.42,13.77h3.86l2.42-13.77h6.28Z"/>
    <path class="cls-1" d="M415.35,98.75l-4.8,27.3h-7.92l-.23-19.03-3.35,19.03h-3.16l4.8-27.3h7.49l.27,21.29,3.74-21.29h3.16Z"/>
    <path class="cls-1" d="M428.76,98.16c4.37,0,6.86,3.67,5.97,8.7l-1.95,11.12c-.9,5.03-4.68,8.7-9.05,8.7s-6.94-3.67-6.04-8.7l1.95-11.12c.9-5.03,4.76-8.7,9.13-8.7ZM423.19,120.71c-.19,1.09-.04,2.61,1.21,2.61,1.13,0,1.83-1.52,2.03-2.61l2.85-16.26c.35-1.87.51-3.43-.94-3.43-1.6,0-1.95,1.56-2.3,3.43l-2.85,16.26Z"/>
    <path class="cls-1" d="M457.31,98.75l-4.8,27.3h-7.92l-.23-19.03-3.35,19.03h-3.16l4.8-27.3h7.49l.27,21.29,3.74-21.29h3.16Z"/>
    <path class="cls-1" d="M470.69,101.28l-2.07,11.62h4.41l-.43,2.34h-4.37l-1.48,8.27h7.02l-.43,2.54h-13.3l4.8-27.3h13.3l-.43,2.54h-7.02Z"/>
    <path class="cls-1" d="M502.67,98.16c4.37,0,6.86,3.67,5.97,8.7l-1.95,11.12c-.9,5.03-4.68,8.7-9.05,8.7s-6.94-3.67-6.04-8.7l1.95-11.12c.9-5.03,4.76-8.7,9.13-8.7ZM497.09,120.71c-.19,1.09-.04,2.61,1.21,2.61,1.13,0,1.83-1.52,2.03-2.61l2.85-16.26c.35-1.87.51-3.43-.94-3.43-1.6,0-1.95,1.56-2.3,3.43l-2.85,16.26Z"/>
    <path class="cls-1" d="M522.4,101.28l-1.99,11.23h4.41l-.43,2.34h-4.41l-1.95,11.19h-6.28l4.8-27.3h13.3l-.43,2.54h-7.02Z"/>
    <path class="cls-1" d="M563.31,101.28h-5.85l-4.37,24.77h-6.28l4.37-24.77h-6.12l.43-2.54h18.25l-.43,2.54Z"/>
    <path class="cls-1" d="M585.54,98.75l-4.8,27.3h-6.28l1.95-11.19h-3.86l-1.95,11.19h-6.28l4.8-27.3h6.28l-2.42,13.77h3.86l2.42-13.77h6.28Z"/>
    <path class="cls-1" d="M598.92,101.28l-2.07,11.62h4.41l-.43,2.34h-4.37l-1.48,8.27h7.02l-.43,2.54h-13.3l4.8-27.3h13.3l-.43,2.54h-7.02Z"/>
    <path class="cls-1" d="M638.66,107.68c-.62,3.51-2.22,6.12-4.8,7.64l.86,10.73h-4.68l-.74-9.32c-.51.04-1.01.08-1.56.08l-1.64,9.24h-6.28l4.8-27.3h6.28c4.95,0,9.05,1.64,7.76,8.93ZM628.29,113.61c1.52-.04,3.9-1.29,4.45-4.29.43-2.3.55-3.08.74-4.17.47-2.57-.82-3.59-3.08-3.59l-2.11,12.05Z"/>
    <path class="cls-1" d="M652.89,98.16c4.37,0,6.86,3.67,5.97,8.7l-1.95,11.12c-.9,5.03-4.68,8.7-9.05,8.7s-6.94-3.67-6.04-8.7l1.95-11.12c.9-5.03,4.76-8.7,9.13-8.7ZM647.32,120.71c-.2,1.09-.04,2.61,1.21,2.61,1.13,0,1.83-1.52,2.03-2.61l2.85-16.26c.35-1.87.51-3.43-.94-3.43-1.6,0-1.95,1.56-2.3,3.43l-2.85,16.26Z"/>
    <path class="cls-1" d="M684.48,126.05h-6.28l3.28-18.56-6.47,18.45v.12h-5.89l-.23-19.03-3.35,19.03h-3.16l4.8-27.3h7.49l.23,18.49,6.47-18.49h7.92l-4.8,27.3Z"/>
    <path class="cls-1" d="M702.66,101.28l-2.07,11.62h4.41l-.43,2.34h-4.37l-1.48,8.27h7.02l-.43,2.54h-13.3l4.8-27.3h13.3l-.43,2.54h-7.02Z"/>
  </g>
</svg>